<svg width="156" height="30" viewBox="0 0 156 30" fill="none" xmlns="http://www.w3.org/2000/svg">
<path d="M0.409014 30V0.839998H6.31301V30H0.409014ZM16.1784 30V0.839998H20.3184L26.7984 16.032V0.839998H31.6944V30H27.7344L21.2544 13.872V30H16.1784ZM41.512 30V0.839998H53.824V4.872H47.452V12.756H52.852V16.896H47.452V30H41.512ZM62.277 30V0.839998H68.181V30H62.277ZM78.0464 30V0.839998H82.1864L88.6664 16.032V0.839998H93.5624V30H89.6024L83.1224 13.872V30H78.0464ZM103.452 30V0.839998H109.356V30H103.452ZM121.957 30V5.268H117.457V0.839998H132.361V5.268H127.933V30H121.957ZM144.223 30V18.444L138.535 0.839998H144.115L147.247 11.1L150.163 0.839998H155.563L149.947 18.444V30H144.223Z" fill="black"/>
</svg>
