<svg width="205" height="28" viewBox="0 0 205 28" fill="none" xmlns="http://www.w3.org/2000/svg">
<path d="M0.738 27V0.729999H11.875C13.0837 0.729999 14.1937 0.976665 15.205 1.47C16.2163 1.96333 17.092 2.62933 17.832 3.468C18.5967 4.30666 19.1887 5.244 19.608 6.28C20.0273 7.316 20.237 8.37667 20.237 9.462C20.237 10.942 19.8917 12.348 19.201 13.68C18.5103 15.012 17.5607 16.0973 16.352 16.936C15.1433 17.7747 13.7127 18.194 12.06 18.194H5.844V27H0.738ZM5.844 13.717H11.764C12.3807 13.717 12.9357 13.5443 13.429 13.199C13.9223 12.8537 14.317 12.3603 14.613 11.719C14.909 11.053 15.057 10.3007 15.057 9.462C15.057 8.54933 14.8843 7.77233 14.539 7.131C14.2183 6.48967 13.7867 6.00867 13.244 5.688C12.726 5.36733 12.1587 5.207 11.542 5.207H5.844V13.717ZM35.0017 27.185C33.0777 27.185 31.3264 26.815 29.7477 26.075C28.1937 25.335 26.8494 24.336 25.7147 23.078C24.6047 21.7953 23.7414 20.3647 23.1247 18.786C22.5081 17.1827 22.1997 15.5423 22.1997 13.865C22.1997 12.1137 22.5204 10.4487 23.1617 8.87C23.8277 7.26667 24.7281 5.84833 25.8627 4.615C27.0221 3.357 28.3787 2.37033 29.9327 1.655C31.5114 0.914998 33.2381 0.544999 35.1127 0.544999C37.0121 0.544999 38.7387 0.927332 40.2927 1.692C41.8714 2.45667 43.2157 3.48033 44.3257 4.763C45.4357 6.04567 46.2991 7.47633 46.9157 9.055C47.5324 10.6337 47.8407 12.2617 47.8407 13.939C47.8407 15.6657 47.5201 17.3307 46.8787 18.934C46.2374 20.5127 45.3371 21.931 44.1777 23.189C43.0431 24.4223 41.6864 25.3967 40.1077 26.112C38.5537 26.8273 36.8517 27.185 35.0017 27.185ZM27.3797 13.865C27.3797 14.9997 27.5524 16.0973 27.8977 17.158C28.2431 18.2187 28.7364 19.1683 29.3777 20.007C30.0437 20.821 30.8454 21.4747 31.7827 21.968C32.7447 22.4367 33.8301 22.671 35.0387 22.671C36.2721 22.671 37.3697 22.4243 38.3317 21.931C39.2937 21.413 40.0954 20.7347 40.7367 19.896C41.3781 19.0327 41.8591 18.083 42.1797 17.047C42.5251 15.9863 42.6977 14.9257 42.6977 13.865C42.6977 12.7303 42.5127 11.645 42.1427 10.609C41.7974 9.54833 41.2917 8.611 40.6257 7.797C39.9844 6.95833 39.1827 6.30467 38.2207 5.836C37.2834 5.34267 36.2227 5.096 35.0387 5.096C33.7807 5.096 32.6707 5.355 31.7087 5.873C30.7714 6.36633 29.9821 7.03233 29.3407 7.871C28.6994 8.70967 28.2061 9.647 27.8607 10.683C27.5401 11.719 27.3797 12.7797 27.3797 13.865ZM51.7575 27V0.729999H63.3755C64.5842 0.729999 65.6942 0.976665 66.7055 1.47C67.7415 1.96333 68.6295 2.62933 69.3695 3.468C70.1342 4.30666 70.7139 5.244 71.1085 6.28C71.5279 7.316 71.7375 8.37667 71.7375 9.462C71.7375 10.572 71.5402 11.645 71.1455 12.681C70.7755 13.6923 70.2329 14.5803 69.5175 15.345C68.8022 16.1097 67.9635 16.7017 67.0015 17.121L72.9955 27H67.3715L61.9695 18.194H56.8635V27H51.7575ZM56.8635 13.717H63.2645C63.9059 13.717 64.4732 13.532 64.9665 13.162C65.4599 12.7673 65.8545 12.2493 66.1505 11.608C66.4465 10.9667 66.5945 10.2513 66.5945 9.462C66.5945 8.62333 66.4219 7.89567 66.0765 7.279C65.7312 6.63767 65.2872 6.132 64.7445 5.762C64.2265 5.392 63.6592 5.207 63.0425 5.207H56.8635V13.717ZM95.7219 5.207H87.3229V27H82.2539V5.207H73.8549V0.729999H95.7219V5.207ZM98.9831 27V0.729999H116.632V5.207H104.089V11.978H114.523V16.122H104.089V27H98.9831ZM131.043 27.185C129.119 27.185 127.367 26.815 125.789 26.075C124.235 25.335 122.89 24.336 121.756 23.078C120.646 21.7953 119.782 20.3647 119.166 18.786C118.549 17.1827 118.241 15.5423 118.241 13.865C118.241 12.1137 118.561 10.4487 119.203 8.87C119.869 7.26667 120.769 5.84833 121.904 4.615C123.063 3.357 124.42 2.37033 125.974 1.655C127.552 0.914998 129.279 0.544999 131.154 0.544999C133.053 0.544999 134.78 0.927332 136.334 1.692C137.912 2.45667 139.257 3.48033 140.367 4.763C141.477 6.04567 142.34 7.47633 142.957 9.055C143.573 10.6337 143.882 12.2617 143.882 13.939C143.882 15.6657 143.561 17.3307 142.92 18.934C142.278 20.5127 141.378 21.931 140.219 23.189C139.084 24.4223 137.727 25.3967 136.149 26.112C134.595 26.8273 132.893 27.185 131.043 27.185ZM123.421 13.865C123.421 14.9997 123.593 16.0973 123.939 17.158C124.284 18.2187 124.777 19.1683 125.419 20.007C126.085 20.821 126.886 21.4747 127.824 21.968C128.786 22.4367 129.871 22.671 131.08 22.671C132.313 22.671 133.411 22.4243 134.373 21.931C135.335 21.413 136.136 20.7347 136.778 19.896C137.419 19.0327 137.9 18.083 138.221 17.047C138.566 15.9863 138.739 14.9257 138.739 13.865C138.739 12.7303 138.554 11.645 138.184 10.609C137.838 9.54833 137.333 8.611 136.667 7.797C136.025 6.95833 135.224 6.30467 134.262 5.836C133.324 5.34267 132.264 5.096 131.08 5.096C129.822 5.096 128.712 5.355 127.75 5.873C126.812 6.36633 126.023 7.03233 125.382 7.871C124.74 8.70967 124.247 9.647 123.902 10.683C123.581 11.719 123.421 12.7797 123.421 13.865ZM147.799 27V0.729999H152.905V22.523H166.299V27H147.799ZM169.406 27V0.729999H174.512V27H169.406ZM191.204 27.185C189.28 27.185 187.529 26.815 185.95 26.075C184.396 25.335 183.052 24.336 181.917 23.078C180.807 21.7953 179.944 20.3647 179.327 18.786C178.71 17.1827 178.402 15.5423 178.402 13.865C178.402 12.1137 178.723 10.4487 179.364 8.87C180.03 7.26667 180.93 5.84833 182.065 4.615C183.224 3.357 184.581 2.37033 186.135 1.655C187.714 0.914998 189.44 0.544999 191.315 0.544999C193.214 0.544999 194.941 0.927332 196.495 1.692C198.074 2.45667 199.418 3.48033 200.528 4.763C201.638 6.04567 202.501 7.47633 203.118 9.055C203.735 10.6337 204.043 12.2617 204.043 13.939C204.043 15.6657 203.722 17.3307 203.081 18.934C202.44 20.5127 201.539 21.931 200.38 23.189C199.245 24.4223 197.889 25.3967 196.31 26.112C194.756 26.8273 193.054 27.185 191.204 27.185ZM183.582 13.865C183.582 14.9997 183.755 16.0973 184.1 17.158C184.445 18.2187 184.939 19.1683 185.58 20.007C186.246 20.821 187.048 21.4747 187.985 21.968C188.947 22.4367 190.032 22.671 191.241 22.671C192.474 22.671 193.572 22.4243 194.534 21.931C195.496 21.413 196.298 20.7347 196.939 19.896C197.58 19.0327 198.061 18.083 198.382 17.047C198.727 15.9863 198.9 14.9257 198.9 13.865C198.9 12.7303 198.715 11.645 198.345 10.609C198 9.54833 197.494 8.611 196.828 7.797C196.187 6.95833 195.385 6.30467 194.423 5.836C193.486 5.34267 192.425 5.096 191.241 5.096C189.983 5.096 188.873 5.355 187.911 5.873C186.974 6.36633 186.184 7.03233 185.543 7.871C184.902 8.70967 184.408 9.647 184.063 10.683C183.742 11.719 183.582 12.7797 183.582 13.865Z" fill="#F1F1F1"/>
</svg>
