<svg width="199" height="27" viewBox="0 0 199 27" fill="none" xmlns="http://www.w3.org/2000/svg">
<path d="M0.664 26V0.439999H11.5C12.676 0.439999 13.756 0.679998 14.74 1.16C15.724 1.64 16.576 2.288 17.296 3.104C18.04 3.92 18.616 4.832 19.024 5.84C19.432 6.848 19.636 7.88 19.636 8.936C19.636 10.376 19.3 11.744 18.628 13.04C17.956 14.336 17.032 15.392 15.856 16.208C14.68 17.024 13.288 17.432 11.68 17.432H5.632V26H0.664ZM5.632 13.076H11.392C11.992 13.076 12.532 12.908 13.012 12.572C13.492 12.236 13.876 11.756 14.164 11.132C14.452 10.484 14.596 9.752 14.596 8.936C14.596 8.048 14.428 7.292 14.092 6.668C13.78 6.044 13.36 5.576 12.832 5.264C12.328 4.952 11.776 4.796 11.176 4.796H5.632V13.076ZM34.0017 26.18C32.1297 26.18 30.4257 25.82 28.8897 25.1C27.3777 24.38 26.0697 23.408 24.9657 22.184C23.8857 20.936 23.0457 19.544 22.4457 18.008C21.8457 16.448 21.5457 14.852 21.5457 13.22C21.5457 11.516 21.8577 9.896 22.4817 8.36C23.1297 6.8 24.0057 5.42 25.1097 4.22C26.2377 2.996 27.5577 2.036 29.0697 1.34C30.6057 0.619998 32.2857 0.259999 34.1097 0.259999C35.9577 0.259999 37.6377 0.631999 39.1497 1.376C40.6857 2.12 41.9937 3.116 43.0737 4.364C44.1537 5.612 44.9937 7.004 45.5937 8.54C46.1937 10.076 46.4937 11.66 46.4937 13.292C46.4937 14.972 46.1817 16.592 45.5577 18.152C44.9337 19.688 44.0577 21.068 42.9297 22.292C41.8257 23.492 40.5057 24.44 38.9697 25.136C37.4577 25.832 35.8017 26.18 34.0017 26.18ZM26.5857 13.22C26.5857 14.324 26.7537 15.392 27.0897 16.424C27.4257 17.456 27.9057 18.38 28.5297 19.196C29.1777 19.988 29.9577 20.624 30.8697 21.104C31.8057 21.56 32.8617 21.788 34.0377 21.788C35.2377 21.788 36.3057 21.548 37.2417 21.068C38.1777 20.564 38.9577 19.904 39.5817 19.088C40.2057 18.248 40.6737 17.324 40.9857 16.316C41.3217 15.284 41.4897 14.252 41.4897 13.22C41.4897 12.116 41.3097 11.06 40.9497 10.052C40.6137 9.02 40.1217 8.108 39.4737 7.316C38.8497 6.5 38.0697 5.864 37.1337 5.408C36.2217 4.928 35.1897 4.688 34.0377 4.688C32.8137 4.688 31.7337 4.94 30.7977 5.444C29.8857 5.924 29.1177 6.572 28.4937 7.388C27.8697 8.204 27.3897 9.116 27.0537 10.124C26.7417 11.132 26.5857 12.164 26.5857 13.22ZM50.3046 26V0.439999H61.6086C62.7846 0.439999 63.8646 0.679998 64.8486 1.16C65.8566 1.64 66.7206 2.288 67.4406 3.104C68.1846 3.92 68.7486 4.832 69.1326 5.84C69.5406 6.848 69.7446 7.88 69.7446 8.936C69.7446 10.016 69.5526 11.06 69.1686 12.068C68.8086 13.052 68.2806 13.916 67.5846 14.66C66.8886 15.404 66.0726 15.98 65.1366 16.388L70.9686 26H65.4966L60.2406 17.432H55.2726V26H50.3046ZM55.2726 13.076H61.5006C62.1246 13.076 62.6766 12.896 63.1566 12.536C63.6366 12.152 64.0206 11.648 64.3086 11.024C64.5966 10.4 64.7406 9.704 64.7406 8.936C64.7406 8.12 64.5726 7.412 64.2366 6.812C63.9006 6.188 63.4686 5.696 62.9406 5.336C62.4366 4.976 61.8846 4.796 61.2846 4.796H55.2726V13.076ZM93.0808 4.796H84.9088V26H79.9768V4.796H71.8048V0.439999H93.0808V4.796ZM96.2538 26V0.439999H113.426V4.796H101.222V11.384H111.374V15.416H101.222V26H96.2538ZM127.447 26.18C125.575 26.18 123.871 25.82 122.335 25.1C120.823 24.38 119.515 23.408 118.411 22.184C117.331 20.936 116.491 19.544 115.891 18.008C115.291 16.448 114.991 14.852 114.991 13.22C114.991 11.516 115.303 9.896 115.927 8.36C116.575 6.8 117.451 5.42 118.555 4.22C119.683 2.996 121.003 2.036 122.515 1.34C124.051 0.619998 125.731 0.259999 127.555 0.259999C129.403 0.259999 131.083 0.631999 132.595 1.376C134.131 2.12 135.439 3.116 136.519 4.364C137.599 5.612 138.439 7.004 139.039 8.54C139.639 10.076 139.939 11.66 139.939 13.292C139.939 14.972 139.627 16.592 139.003 18.152C138.379 19.688 137.503 21.068 136.375 22.292C135.271 23.492 133.951 24.44 132.415 25.136C130.903 25.832 129.247 26.18 127.447 26.18ZM120.031 13.22C120.031 14.324 120.199 15.392 120.535 16.424C120.871 17.456 121.351 18.38 121.975 19.196C122.623 19.988 123.403 20.624 124.315 21.104C125.251 21.56 126.307 21.788 127.483 21.788C128.683 21.788 129.751 21.548 130.687 21.068C131.623 20.564 132.403 19.904 133.027 19.088C133.651 18.248 134.119 17.324 134.431 16.316C134.767 15.284 134.935 14.252 134.935 13.22C134.935 12.116 134.755 11.06 134.395 10.052C134.059 9.02 133.567 8.108 132.919 7.316C132.295 6.5 131.515 5.864 130.579 5.408C129.667 4.928 128.635 4.688 127.483 4.688C126.259 4.688 125.179 4.94 124.243 5.444C123.331 5.924 122.563 6.572 121.939 7.388C121.315 8.204 120.835 9.116 120.499 10.124C120.187 11.132 120.031 12.164 120.031 13.22ZM143.75 26V0.439999H148.718V21.644H161.75V26H143.75ZM164.773 26V0.439999H169.741V26H164.773ZM185.982 26.18C184.11 26.18 182.406 25.82 180.87 25.1C179.358 24.38 178.05 23.408 176.946 22.184C175.866 20.936 175.026 19.544 174.426 18.008C173.826 16.448 173.526 14.852 173.526 13.22C173.526 11.516 173.838 9.896 174.462 8.36C175.11 6.8 175.986 5.42 177.09 4.22C178.218 2.996 179.538 2.036 181.05 1.34C182.586 0.619998 184.266 0.259999 186.09 0.259999C187.938 0.259999 189.618 0.631999 191.13 1.376C192.666 2.12 193.974 3.116 195.054 4.364C196.134 5.612 196.974 7.004 197.574 8.54C198.174 10.076 198.474 11.66 198.474 13.292C198.474 14.972 198.162 16.592 197.538 18.152C196.914 19.688 196.038 21.068 194.91 22.292C193.806 23.492 192.486 24.44 190.95 25.136C189.438 25.832 187.782 26.18 185.982 26.18ZM178.566 13.22C178.566 14.324 178.734 15.392 179.07 16.424C179.406 17.456 179.886 18.38 180.51 19.196C181.158 19.988 181.938 20.624 182.85 21.104C183.786 21.56 184.842 21.788 186.018 21.788C187.218 21.788 188.286 21.548 189.222 21.068C190.158 20.564 190.938 19.904 191.562 19.088C192.186 18.248 192.654 17.324 192.966 16.316C193.302 15.284 193.47 14.252 193.47 13.22C193.47 12.116 193.29 11.06 192.93 10.052C192.594 9.02 192.102 8.108 191.454 7.316C190.83 6.5 190.05 5.864 189.114 5.408C188.202 4.928 187.17 4.688 186.018 4.688C184.794 4.688 183.714 4.94 182.778 5.444C181.866 5.924 181.098 6.572 180.474 7.388C179.85 8.204 179.37 9.116 179.034 10.124C178.722 11.132 178.566 12.164 178.566 13.22Z" fill="black"/>
</svg>
